<?xml version="1.0" standalone="no"?>
<!DOCTYPE svg PUBLIC "-//W3C//DTD SVG 20010904//EN"
 "http://www.w3.org/TR/2001/REC-SVG-20010904/DTD/svg10.dtd">
<svg style="display: block;" version="1.0" xmlns="http://www.w3.org/2000/svg"
 width="100" height="100" viewBox="0 0 860 860"
 preserveAspectRatio="xMidYMid meet">
<metadata>
Created by potrace 1.16, written by Peter Selinger 2001-2019
</metadata>
<g transform="translate(0.000000,860.000000) scale(0.100000,-0.100000)"
fill="#00B4D8" stroke="none">
<path d="M4185 8119 c-180 -85 -674 -303 -800 -353 -124 -50 -122 -48 -98 -82
22 -32 63 -120 63 -137 0 -14 50 -67 63 -67 5 0 6 7 3 16 -3 9 -2 12 5 9 6 -4
8 -13 5 -20 -5 -13 14 -29 133 -112 l75 -51 45 18 c73 28 449 191 575 249 38
17 77 31 86 31 10 0 125 -48 256 -106 132 -58 287 -126 345 -150 l107 -45 68
47 c66 46 117 85 157 120 10 8 16 22 13 30 -3 8 -1 14 4 14 5 0 10 -8 13 -17
3 -13 9 -6 21 22 10 22 31 69 49 105 17 36 31 69 31 73 1 4 -98 50 -219 101
-266 113 -510 221 -704 310 -80 36 -145 66 -145 65 -1 0 -68 -32 -151 -70z
m225 -159 c13 -8 13 -10 -2 -10 -9 0 -20 5 -23 10 -8 13 5 13 25 0z m-165 -20
c-22 -10 -36 -19 -31 -19 5 -1 7 -3 4 -6 -3 -3 -13 -2 -24 2 -15 5 -11 10 22
24 53 23 80 22 29 -1z m235 -16 c0 -8 -4 -12 -10 -9 -5 3 -10 10 -10 16 0 5 5
9 10 9 6 0 10 -7 10 -16z m50 -14 c13 -8 13 -10 -2 -10 -9 0 -20 5 -23 10 -8
13 5 13 25 0z m-370 -20 c0 -5 -9 -10 -20 -10 -11 0 -20 5 -20 10 0 6 9 10 20
10 11 0 20 -4 20 -10z m450 -20 c0 -5 -4 -10 -9 -10 -6 0 -13 5 -16 10 -3 6 1
10 9 10 9 0 16 -4 16 -10z m76 -31 c8 -14 -10 -11 -32 6 -18 13 -18 14 4 8 12
-3 25 -9 28 -14z m-696 -9 c-8 -5 -19 -10 -25 -10 -5 0 -3 5 5 10 8 5 20 10
25 10 6 0 3 -5 -5 -10z m438 -25 c7 -7 -33 -6 -52 1 -9 3 -16 10 -16 14 0 8
58 -4 68 -15z m-528 -20 c-7 -9 -15 -13 -17 -11 -7 7 7 26 19 26 6 0 6 -6 -2
-15z m360 5 c0 -5 -5 -10 -11 -10 -5 0 -7 5 -4 10 3 6 8 10 11 10 2 0 4 -4 4
-10z m520 6 c0 -2 -9 -6 -20 -9 -11 -3 -18 -1 -14 4 5 9 34 13 34 5z m-282
-18 c-2 -6 10 -18 25 -26 16 -7 26 -16 24 -19 -9 -9 -67 27 -67 42 0 8 5 15
10 15 6 0 9 -5 8 -12z m-314 -23 c-10 -8 -23 -15 -28 -15 -6 0 -1 7 10 15 10
8 23 15 28 15 6 0 1 -7 -10 -15z m-363 -4 c-11 -7 -11 -10 3 -14 15 -5 15 -5
0 -3 -24 2 -30 26 -7 26 14 0 15 -2 4 -9z m1059 5 c0 -2 -9 -6 -20 -9 -11 -3
-18 -1 -14 4 5 9 34 13 34 5z m96 -43 c-8 -8 -56 6 -56 17 0 5 13 5 31 -2 16
-6 28 -13 25 -15z m-1231 7 c-3 -5 -11 -10 -16 -10 -6 0 -7 5 -4 10 3 6 11 10
16 10 6 0 7 -4 4 -10z m-75 -35 c-7 -8 -17 -15 -22 -15 -11 0 14 29 26 30 5 0
3 -7 -4 -15z m1010 -1 c0 -2 -9 -4 -20 -4 -11 0 -20 4 -20 9 0 5 9 7 20 4 11
-3 20 -7 20 -9z m373 -6 c16 -12 15 -13 -6 -13 -13 0 -24 6 -24 13 0 6 3 12 7
12 3 0 14 -6 23 -12z m-1058 -8 c-3 -5 -14 -10 -23 -10 -15 0 -15 2 -2 10 20
13 33 13 25 0z m741 1 c-4 -5 0 -11 6 -14 7 -2 10 -8 5 -12 -10 -12 -31 11
-23 24 4 6 9 11 12 11 3 0 3 -4 0 -9z m94 -62 c0 -5 -7 -6 -15 -3 -8 4 -15 13
-15 21 0 13 3 13 15 3 8 -7 15 -16 15 -21z m340 21 c13 -9 13 -10 0 -9 -8 0
-24 4 -35 9 l-20 9 20 0 c11 0 27 -4 35 -9z m-1669 -20 c-26 -22 -50 -27 -29
-7 12 13 35 25 48 26 3 0 -6 -9 -19 -19z m364 14 c13 -5 14 -8 3 -15 -19 -13
-28 -11 -28 6 0 17 2 18 25 9z m1012 -28 c0 -8 -8 -11 -19 -8 -10 2 -18 8 -18
13 0 5 8 9 18 9 10 0 19 -6 19 -14z m383 -11 c0 -2 -9 -3 -20 -2 -11 1 -20 7
-20 14 0 11 5 11 20 3 11 -6 20 -13 20 -15z m-1823 -4 c-1 -14 -5 -17 -13 -11
-6 6 -13 9 -15 7 -2 -1 2 4 10 11 19 16 20 15 18 -7z m357 -3 c-3 -4 -12 -8
-20 -8 -8 0 -13 4 -10 8 3 5 12 9 20 9 8 0 13 -4 10 -9z m1141 -8 c3 -5 -1
-10 -9 -10 -8 0 -18 5 -21 10 -3 6 1 10 9 10 8 0 18 -4 21 -10z m-1548 -16
c-3 -3 -12 -4 -19 -1 -8 3 -5 6 6 6 11 1 17 -2 13 -5z m1598 -12 c-3 -3 -11 0
-18 7 -9 10 -8 11 6 5 10 -3 15 -9 12 -12z m-1322 -19 c-7 -2 -21 -2 -30 0
-10 3 -4 5 12 5 17 0 24 -2 18 -5z m1467 -34 c0 -13 -13 -11 -35 5 -18 13 -18
14 8 9 15 -3 27 -9 27 -14z m-1565 1 c3 -5 1 -10 -4 -10 -6 0 -11 5 -11 10 0
6 2 10 4 10 3 0 8 -4 11 -10z m-25 -14 c0 -2 -7 -7 -16 -10 -8 -3 -12 -2 -9 4
6 10 25 14 25 6z"/>
<path d="M2594 7790 c-78 -8 -128 -29 -145 -62 -19 -35 -6 -127 28 -200 55
-118 142 -190 263 -219 73 -17 227 -17 321 0 l76 13 161 -106 c89 -58 165
-114 170 -123 5 -10 17 -61 26 -113 9 -52 19 -105 21 -117 5 -19 -5 -25 -110
-58 -117 -38 -155 -63 -155 -106 0 -25 -3 -26 -195 -90 -239 -79 -245 -82
-245 -155 0 -47 37 -84 83 -84 18 0 106 25 195 55 144 49 169 54 215 49 44 -5
72 0 163 29 60 19 124 38 142 42 32 7 34 6 27 -16 -15 -49 -39 -84 -129 -187
-120 -139 -126 -149 -126 -198 0 -22 23 -119 50 -214 55 -189 53 -186 192
-346 42 -49 86 -102 99 -118 28 -36 27 -35 -145 73 -69 45 -131 81 -136 81
-14 0 -58 -91 -75 -157 -51 -197 46 -799 200 -1233 26 -73 103 -220 115 -220
3 0 7 222 9 493 1 316 6 508 13 537 14 55 40 118 62 145 14 18 15 -44 16 -693
0 -613 2 -717 15 -742 23 -45 53 -60 117 -60 l57 0 3 398 3 397 30 60 c17 33
35 58 40 55 7 -3 9 -272 7 -784 -1 -429 -4 -781 -5 -782 -4 -5 -155 94 -251
164 -392 285 -704 644 -935 1075 -44 80 -51 100 -41 112 11 13 10 14 -2 10 -9
-4 -19 4 -26 20 -10 21 -9 25 4 25 8 0 24 -5 35 -10 10 -6 19 -7 19 -2 0 14
-47 35 -64 29 -10 -4 -17 2 -21 16 -4 12 -17 45 -30 72 -45 98 -73 171 -79
207 -4 20 -10 38 -15 40 -4 2 -20 44 -35 93 -15 50 -34 108 -41 130 -13 36
-37 137 -80 325 -21 94 -45 243 -60 380 -36 328 -43 470 -37 705 l2 71 93 28
c50 16 112 35 137 42 103 32 116 37 140 60 25 23 153 74 185 74 21 0 19 18 -2
23 -10 2 0 3 22 1 47 -3 166 35 173 55 3 9 0 11 -9 6 -8 -5 -11 -4 -6 1 5 5
12 9 17 9 4 0 24 20 44 43 20 24 36 41 36 38 0 -10 73 23 81 36 4 7 5 16 3 20
-3 4 0 8 6 8 7 0 9 -7 6 -16 -5 -13 -2 -15 16 -10 13 3 26 6 29 6 10 0 -2 50
-12 50 -4 0 -23 -6 -41 -14 -18 -8 -52 -22 -75 -32 -24 -9 -43 -23 -43 -30 0
-19 -21 -29 -30 -14 -7 11 -28 6 -102 -20 -51 -18 -106 -38 -123 -46 -30 -13
-271 -95 -290 -98 -5 -1 -48 -14 -95 -29 -47 -15 -130 -40 -185 -56 l-100 -29
-7 -58 c-12 -98 -1 -588 16 -759 43 -429 139 -833 283 -1195 199 -502 499
-947 855 -1268 256 -230 548 -431 845 -581 97 -49 77 -54 288 64 506 282 921
652 1189 1060 199 303 243 380 225 401 -7 8 -8 14 -3 13 24 -4 34 5 51 48 10
27 16 53 14 58 -1 6 -5 21 -8 34 -2 14 -7 29 -10 34 -3 6 -1 7 5 3 7 -4 12 -2
12 5 0 19 13 1 17 -23 2 -12 -2 -25 -9 -30 -9 -5 -10 -8 -1 -8 13 0 43 54 43
78 0 12 -3 12 -15 2 -9 -8 -15 -9 -15 -2 0 6 5 14 10 17 6 4 8 15 5 24 -3 11
5 29 20 47 14 16 25 24 25 17 0 -6 -4 -15 -10 -18 -5 -3 -10 -21 -9 -38 0 -24
11 -5 45 83 36 90 43 119 35 133 -9 13 -8 17 4 17 8 0 15 5 15 10 0 6 -3 10
-8 10 -13 0 -34 59 -27 80 4 11 16 30 28 41 21 19 21 21 5 33 -23 17 -23 22 2
29 14 4 20 14 20 35 0 17 5 34 12 38 8 5 9 2 5 -10 -4 -9 -3 -14 2 -11 5 3 12
1 16 -5 3 -5 -1 -10 -10 -10 -12 0 -15 -6 -10 -20 4 -13 2 -20 -6 -20 -7 0 -4
-6 7 -14 18 -14 18 -15 2 -21 -10 -4 -18 -16 -18 -27 0 -34 22 -14 36 32 8 25
18 59 24 75 5 17 20 76 34 133 23 101 23 103 5 115 -26 16 -24 27 7 27 23 0
26 3 22 30 -2 16 -1 31 2 32 4 2 10 17 13 35 5 26 3 31 -8 26 -10 -3 -15 2
-15 16 0 12 5 21 10 21 6 0 10 -5 10 -12 0 -28 18 10 23 49 4 31 1 43 -10 47
-12 5 -11 9 6 24 19 15 22 30 26 132 2 63 7 123 11 133 3 10 2 29 -4 43 -7 13
-8 24 -3 24 5 0 12 -6 14 -12 3 -7 6 4 6 25 1 27 -3 37 -14 37 -8 0 -15 -6
-15 -12 0 -7 -5 -5 -11 5 -5 9 -18 17 -27 17 -15 0 -22 -24 -45 -137 -15 -76
-29 -156 -33 -178 -3 -22 -9 -49 -14 -60 -9 -20 -28 -119 -35 -183 -3 -22 1
-35 10 -39 21 -8 18 -23 -4 -23 -27 0 -45 -52 -22 -68 14 -10 14 -11 -5 -11
-17 -1 -23 -9 -28 -40 -3 -22 -7 -45 -9 -53 -2 -7 -2 -10 0 -5 8 13 23 8 23
-8 0 -8 5 -15 11 -15 5 0 7 5 4 10 -3 6 4 10 17 10 21 -1 22 -2 6 -14 -10 -7
-18 -21 -18 -30 0 -9 -5 -16 -11 -16 -6 0 -8 7 -5 16 3 8 2 12 -4 9 -6 -3 -10
-1 -10 4 0 6 -4 11 -8 11 -10 0 -32 -45 -32 -65 0 -18 27 -20 33 -2 2 6 7 9
11 6 7 -7 -16 -59 -26 -59 -5 0 -8 4 -8 10 0 5 -7 7 -15 4 -8 -4 -12 -10 -9
-15 2 -5 0 -18 -6 -30 -13 -23 -4 -41 9 -20 7 10 10 8 16 -8 7 -24 -11 -81
-26 -81 -5 0 -7 -13 -4 -30 5 -28 3 -30 -24 -30 -28 0 -49 24 -32 35 13 7 2
41 -19 60 -15 13 -23 14 -39 5 -17 -9 -19 -15 -11 -30 16 -29 -8 -36 -31 -9
-16 18 -22 20 -28 10 -5 -8 -14 -10 -20 -7 -6 4 -9 11 -6 16 14 23 -38 84 -54
63 -11 -15 -30 -13 -25 2 4 8 1 15 -6 15 -6 0 -10 6 -7 13 2 7 16 11 31 9 19
-3 26 0 22 7 -8 12 -39 15 -50 4 -9 -9 -35 -15 -63 -14 -13 0 -23 -4 -23 -10
0 -5 6 -9 13 -8 43 5 67 -2 67 -21 0 -13 -7 -20 -20 -20 -11 0 -20 -6 -20 -14
0 -21 17 -29 23 -12 3 8 15 20 26 26 19 10 21 8 17 -22 -2 -22 2 -37 13 -45
10 -8 11 -12 4 -13 -7 0 -10 -7 -7 -15 8 -20 -6 -19 -22 3 -7 9 -14 12 -14 6
0 -7 8 -20 18 -31 9 -10 16 -17 15 -14 -6 10 65 47 95 49 26 2 32 -1 32 -19 0
-16 -4 -19 -20 -14 -12 4 -20 2 -20 -5 0 -18 27 -40 49 -40 11 0 23 -4 26 -10
3 -5 1 -10 -4 -10 -6 0 -10 -4 -8 -9 3 -13 -45 -90 -60 -95 -7 -3 -10 1 -6 10
3 7 0 14 -6 14 -12 0 -14 -9 -11 -60 1 -19 7 -38 13 -42 9 -6 8 -11 -3 -18 -8
-5 -12 -10 -8 -10 11 0 -13 -61 -39 -101 -13 -20 -39 -45 -58 -55 -23 -12 -33
-24 -30 -34 2 -8 -4 -26 -15 -40 -16 -20 -20 -22 -20 -7 0 11 -8 17 -24 17
-14 0 -28 4 -31 10 -4 6 9 7 35 4 30 -4 40 -2 40 8 0 11 -12 14 -53 10 -38 -3
-63 1 -86 12 -27 14 -32 15 -37 2 -6 -15 -41 -15 -64 -1 -10 6 -9 11 5 21 14
10 22 11 32 3 22 -19 14 4 -12 34 -29 32 -35 34 -28 7 3 -11 1 -20 -5 -20 -13
0 -24 29 -15 43 14 23 -1 122 -18 112 -14 -9 -11 2 7 19 22 22 27 122 7 142
-9 8 -13 18 -9 21 3 4 6 3 6 -1 0 -4 9 -2 20 4 23 12 17 37 -12 46 -11 3 -16
9 -11 13 12 7 13 41 1 41 -4 0 -8 -5 -8 -11 0 -6 -10 -19 -22 -30 -13 -10 -17
-18 -10 -19 14 0 17 -40 2 -40 -6 0 -5 -8 2 -19 7 -11 16 -17 20 -15 9 6 11
-27 2 -49 -4 -12 -10 -12 -30 -3 -20 9 -30 30 -25 59 2 14 -12 7 -35 -19 -27
-28 -29 -39 -12 -50 6 -4 8 -3 5 2 -3 6 -2 16 4 24 7 13 9 12 9 -2 0 -26 -11
-48 -25 -48 -13 0 -25 -21 -25 -46 0 -11 4 -13 17 -6 11 7 21 6 30 -4 20 -19
9 -32 -22 -27 -18 4 -26 0 -31 -13 -3 -11 -10 -28 -15 -39 -5 -11 -11 -31 -14
-44 -2 -13 -12 -46 -21 -73 -9 -27 -13 -52 -10 -55 3 -4 6 1 6 10 0 10 8 17
20 17 11 0 20 5 20 10 0 6 -4 10 -10 10 -18 0 -10 35 10 48 12 7 18 18 14 24
-4 7 -3 8 4 4 7 -4 12 -2 12 4 0 6 -7 13 -15 16 -21 9 -19 24 4 24 12 0 21 8
23 19 3 18 5 18 23 5 19 -14 19 -15 -3 -20 -18 -5 -22 -13 -22 -45 0 -32 3
-39 20 -39 21 0 26 16 11 39 -6 9 -4 19 5 29 18 18 21 15 25 -25 3 -23 -2 -37
-20 -52 -28 -25 -41 -27 -41 -6 0 9 -9 15 -21 15 -15 0 -19 -4 -15 -16 3 -9 6
-18 6 -20 0 -2 9 -4 21 -4 11 0 17 -5 14 -10 -4 -6 -12 -10 -18 -9 -20 3 -47
-12 -47 -27 0 -8 -8 -14 -19 -14 -11 0 -21 -9 -24 -22 -10 -43 -58 -163 -92
-230 -24 -46 -31 -68 -22 -71 7 -3 2 -6 -10 -6 -12 -1 -27 -10 -33 -22 -7 -11
-27 -38 -47 -60 -29 -32 -36 -50 -43 -101 -10 -78 -20 -105 -58 -144 -40 -44
-82 -63 -152 -71 l-60 -6 0 -232 c0 -257 5 -238 -72 -284 l-38 -23 0 793 0
792 21 -27 c12 -15 30 -49 40 -77 17 -45 19 -81 19 -434 l0 -385 63 0 c34 0
69 6 77 13 47 38 45 6 50 771 l5 721 23 -35 c12 -19 32 -64 44 -100 21 -62 22
-86 27 -558 l6 -493 35 53 c42 65 68 129 115 283 117 388 182 759 173 1000 -4
105 -8 129 -34 189 -16 38 -36 73 -45 79 -12 7 -41 -7 -127 -61 -61 -39 -126
-78 -144 -88 -32 -17 -32 -16 17 42 27 32 80 94 117 136 37 42 74 90 82 107 9
16 38 109 66 206 62 221 61 229 -43 343 -38 42 -84 95 -102 117 -37 45 -77
120 -69 128 6 6 47 -4 174 -45 77 -24 106 -29 154 -25 52 5 75 0 215 -49 86
-31 174 -56 195 -56 52 -1 86 36 86 92 0 64 -17 75 -245 150 -187 61 -195 65
-195 89 0 42 -38 69 -150 106 -81 27 -110 41 -110 53 0 31 31 197 41 224 6 14
27 38 47 51 37 25 256 167 279 180 7 4 52 0 100 -9 147 -28 320 -7 417 50 88
51 165 167 186 278 12 63 -9 115 -55 137 -92 44 -419 36 -519 -13 -95 -47
-182 -162 -206 -274 -10 -46 -14 -50 -113 -117 -188 -127 -243 -171 -262 -211
-21 -44 -35 -107 -60 -257 -18 -104 -19 -108 -46 -114 -38 -7 -52 -25 -169
-213 -56 -91 -109 -172 -117 -180 -8 -8 16 71 52 175 103 292 109 311 102 328
-20 52 -261 191 -387 223 -132 34 -302 -2 -459 -95 -86 -51 -171 -119 -171
-137 0 -7 39 -124 86 -260 47 -135 84 -247 82 -249 -2 -2 -55 78 -118 177
-143 226 -145 228 -179 228 l-27 0 -28 158 c-44 248 -44 248 -282 406 -130 86
-131 87 -142 136 -27 118 -119 239 -212 279 -84 36 -249 48 -416 31z m321
-1010 c-27 -12 -43 -12 -25 0 8 5 22 9 30 9 10 0 8 -3 -5 -9z m-48 -86 c-3 -3
-12 -4 -19 -1 -8 3 -5 6 6 6 11 1 17 -2 13 -5z m1592 -466 c141 -68 200 -243
128 -383 -30 -59 -65 -94 -127 -126 -36 -19 -61 -24 -125 -24 -69 0 -86 4
-126 27 -51 30 -99 81 -125 131 -25 47 -30 163 -10 212 69 166 235 236 385
163z m-749 -296 c52 -36 143 -101 202 -144 102 -75 110 -84 142 -151 19 -40
30 -73 26 -75 -10 -4 -271 107 -340 144 -25 14 -55 39 -68 58 -20 30 -87 184
-107 246 l-8 24 29 -18 c16 -11 72 -48 124 -84z m1366 -16 c-77 -180 -79 -183
-149 -217 -98 -48 -319 -140 -324 -135 -10 10 31 97 62 133 18 21 80 72 139
113 58 41 152 108 208 148 55 40 103 71 105 68 2 -2 -16 -52 -41 -110z m1272
-27 c-6 -16 -12 -29 -13 -27 -6 6 8 58 16 58 4 0 3 -14 -3 -31z m2 -79 c13 -8
13 -10 -2 -10 -9 0 -19 -10 -21 -22 -3 -17 -5 -14 -6 10 -1 34 4 38 29 22z
m15 -150 c3 -5 1 -10 -4 -10 -6 0 -11 5 -11 10 0 6 2 10 4 10 3 0 8 -4 11 -10z
m-9 -97 c-10 -10 -19 5 -10 18 6 11 8 11 12 0 2 -7 1 -15 -2 -18z m-66 13 c0
-3 -4 -8 -10 -11 -5 -3 -10 -1 -10 4 0 6 5 11 10 11 6 0 10 -2 10 -4z m13 -43
c3 -5 -1 -14 -9 -21 -12 -11 -14 -9 -14 8 0 20 14 27 23 13z m-37 -28 c-4 -24
-16 -30 -16 -7 0 12 4 22 9 22 5 0 8 -7 7 -15z m54 -35 c0 -13 -11 -13 -30 0
-12 8 -11 10 8 10 12 0 22 -4 22 -10z m-69 -53 c-8 -8 -11 -3 -11 19 1 25 2
27 11 11 8 -14 8 -22 0 -30z m-2024 -22 c119 -30 115 -30 232 -1 l95 24 55
-19 c109 -38 101 -14 101 -294 0 -135 -3 -245 -6 -245 -3 0 -23 15 -45 33 -51
44 -129 83 -209 103 -135 34 -311 -8 -426 -102 -23 -19 -44 -34 -48 -34 -3 0
-6 112 -6 248 l0 248 73 31 c39 17 75 32 79 32 4 1 51 -10 105 -24z m2087 9
c10 -26 7 -56 -5 -49 -6 4 -8 13 -5 21 3 8 -1 17 -9 20 -8 4 -12 10 -9 15 8
14 21 11 28 -7z m-34 -74 c0 -16 -5 -30 -10 -30 -6 0 -9 14 -8 30 1 17 6 30
10 30 4 0 8 -13 8 -30z m-20 -81 c0 -6 -4 -7 -10 -4 -5 3 -10 11 -10 16 0 6 5
7 10 4 6 -3 10 -11 10 -16z m40 -25 c0 -18 -17 -37 -42 -46 -11 -5 -18 0 -21
14 -3 11 -10 17 -16 13 -7 -3 -8 0 -5 9 8 20 24 21 24 1 0 -9 9 -15 21 -15 16
0 20 5 16 20 -3 13 0 20 9 20 8 0 14 -7 14 -16z m-76 -53 c3 -3 -6 -8 -20 -9
-13 -1 -24 2 -24 6 0 10 38 13 44 3z m56 -46 c0 -8 -7 -11 -20 -8 -11 3 -20 8
-20 12 0 4 9 7 20 8 11 1 20 -4 20 -12z m-40 -55 c0 -5 -4 -10 -9 -10 -6 0
-13 5 -16 10 -3 6 1 10 9 10 9 0 16 -4 16 -10z m-43 -22 c-3 -8 -6 -5 -6 6 -1
11 2 17 5 13 3 -3 4 -12 1 -19z m-325 -140 c-7 -7 -12 -20 -12 -30 0 -10 -4
-18 -10 -18 -5 0 -10 14 -10 30 0 24 4 30 22 30 17 0 19 -3 10 -12z m154 -44
c-3 -9 -6 -22 -6 -30 0 -9 -4 -12 -10 -9 -17 10 -12 55 6 55 11 0 14 -5 10
-16z m-26 -70 c0 -8 -2 -14 -4 -14 -2 0 -11 -3 -20 -6 -19 -7 -21 11 -3 30 14
16 27 11 27 -10z m50 -14 c8 -11 21 -20 30 -20 9 0 22 9 30 20 19 27 25 25 28
-7 1 -14 -1 -24 -4 -20 -4 3 -12 0 -20 -7 -10 -10 -24 -12 -48 -6 -19 4 -37 5
-40 2 -4 -3 -6 9 -6 26 0 37 9 40 30 12z m84 -82 c10 9 6 -32 -4 -48 -8 -13
-12 -12 -25 8 -11 15 -26 22 -51 22 -38 0 -47 -17 -11 -22 12 -2 22 -9 22 -17
0 -16 -49 -33 -71 -24 -16 6 -16 65 1 60 5 -2 23 4 38 13 21 13 37 16 62 10
19 -4 36 -5 39 -2z m-641 -53 c4 -8 2 -17 -3 -20 -6 -4 -10 3 -10 14 0 25 6
27 13 6z m-34 -58 c-9 -11 -22 -16 -28 -12 -6 3 -11 1 -11 -5 0 -6 -4 -8 -10
-5 -14 9 -12 63 2 67 7 3 24 -2 39 -11 25 -14 26 -15 8 -34z m641 44 c0 -6 -4
-13 -10 -16 -5 -3 -10 1 -10 9 0 9 5 16 10 16 6 0 10 -4 10 -9z m-148 -31 c10
0 26 -7 34 -15 13 -13 12 -16 -6 -27 -11 -7 -20 -18 -20 -25 0 -7 -4 -13 -10
-13 -5 0 -10 -9 -10 -19 0 -11 -4 -23 -10 -26 -5 -3 -10 -13 -10 -22 0 -11 8
-14 30 -11 17 3 30 1 30 -3 0 -11 -28 -19 -45 -13 -17 7 -21 -21 -5 -31 6 -3
10 -10 10 -16 0 -5 -4 -9 -10 -9 -5 0 -10 7 -10 15 0 8 -4 15 -9 15 -5 0 -9
18 -9 40 0 22 3 40 9 40 5 0 9 9 9 20 0 11 5 20 10 20 6 0 10 9 10 20 0 11 5
20 10 20 6 0 10 5 10 10 0 6 -3 9 -7 9 -23 -4 -33 3 -32 24 0 12 3 16 6 10 2
-7 14 -13 25 -13z m104 -15 c-19 -14 -36 -12 -36 6 0 5 12 9 28 9 26 -1 26 -1
8 -15z m-596 -45 c0 -11 -4 -20 -9 -20 -11 0 -9 -18 6 -46 7 -11 8 -26 4 -33
-5 -7 -7 -23 -5 -37 1 -13 -2 -24 -7 -24 -15 0 -10 -27 7 -34 8 -3 12 -10 9
-16 -3 -5 -1 -10 4 -10 6 0 11 5 11 10 0 6 8 10 19 10 23 0 88 -116 69 -123
-24 -8 -34 4 -30 33 3 18 0 30 -7 30 -6 0 -11 9 -11 20 0 13 -7 20 -20 20 -13
0 -20 -7 -20 -20 0 -11 -5 -20 -10 -20 -6 0 -10 6 -8 14 2 8 -6 22 -17 33 -20
18 -30 73 -14 73 14 0 10 72 -6 100 -12 22 -11 27 3 42 23 23 32 22 32 -2z
m555 -38 c-3 -17 -13 -33 -21 -36 -8 -3 -13 -2 -10 2 2 4 1 14 -4 22 -7 11 -3
20 13 32 27 21 31 17 22 -20z m-23 -154 c-6 -6 -8 -1 -7 14 4 39 8 44 12 19 3
-13 0 -28 -5 -33z m-92 22 c0 -5 -7 -10 -16 -10 -8 0 -12 5 -9 10 3 6 10 10
16 10 5 0 9 -4 9 -10z m-70 -20 c0 -5 -7 -10 -15 -10 -8 0 -15 5 -15 10 0 6 7
10 15 10 8 0 15 -4 15 -10z m27 -10 c-1 -11 -5 -20 -9 -20 -10 0 -10 4 -2 24
8 22 13 20 11 -4z m86 8 c-13 -6 -23 -15 -23 -20 0 -5 -4 -6 -10 -3 -5 3 -10
11 -10 16 0 6 5 7 10 4 6 -3 10 -1 10 4 0 6 10 11 23 10 l22 0 -22 -11z m-566
-68 c-1 -37 -17 -59 -17 -25 0 13 -4 14 -20 5 -18 -10 -20 -8 -20 20 0 34 3
36 24 14 15 -14 16 -14 16 5 0 12 4 21 9 21 6 0 9 -18 8 -40z m63 0 c0 -28 -2
-30 -21 -19 -17 9 -19 13 -8 20 8 5 10 9 6 9 -11 0 2 20 14 20 5 0 9 -14 9
-30z m224 -9 c-12 -13 -20 -17 -25 -10 -8 14 23 49 34 39 5 -4 1 -17 -9 -29z
m-44 17 c0 -4 -9 -8 -20 -8 -11 0 -20 4 -20 8 0 4 9 8 20 8 11 0 20 -4 20 -8z
m215 1 c-7 -11 -35 -12 -35 -1 0 4 9 8 20 9 11 1 18 -2 15 -8z m72 -6 c3 -7
-4 -9 -16 -6 -14 3 -23 0 -27 -11 -7 -17 -44 -22 -44 -6 0 6 8 13 18 16 9 3
24 9 32 14 18 11 32 8 37 -7z m43 13 c0 -2 -7 -9 -15 -16 -12 -10 -15 -10 -15
4 0 9 7 16 15 16 8 0 15 -2 15 -4z m-238 -38 c-7 -7 -12 -8 -12 -2 0 14 12 26
19 19 2 -3 -1 -11 -7 -17z m56 -7 c-7 -12 -16 -21 -21 -21 -4 0 0 11 9 25 20
30 31 26 12 -4z m-258 -2 c0 -8 -32 -29 -44 -29 -3 0 -6 11 -6 24 0 19 4 22
25 18 14 -2 25 -8 25 -13z m-213 -9 c-1 -23 -8 -25 -25 -8 -17 17 -15 28 7 28
14 0 19 -6 18 -20z m383 -10 c0 -10 -59 -10 -65 0 -2 4 11 7 30 8 19 1 35 -3
35 -8z m40 -15 c0 -8 -4 -15 -8 -15 -5 0 -9 7 -9 15 0 8 4 15 9 15 4 0 8 -7 8
-15z m189 -39 c-9 -8 -10 -7 -5 7 3 10 7 26 7 35 1 9 4 6 6 -7 3 -13 -1 -28
-8 -35z m-549 34 c0 -5 7 -10 15 -10 8 0 15 -5 15 -11 0 -5 -5 -7 -10 -4 -6 3
-13 -1 -16 -9 -3 -9 -14 -16 -23 -16 -13 1 -13 3 4 16 19 14 19 15 -3 21 -18
4 -20 8 -10 14 18 12 28 11 28 -1z m80 -5 c0 -8 -4 -15 -8 -15 -5 0 -9 7 -9
15 0 8 4 15 9 15 4 0 8 -7 8 -15z m340 8 c0 -5 -10 -19 -21 -33 -17 -22 -19
-23 -17 -5 3 23 38 58 38 38z m63 -10 c-7 -2 -19 -2 -25 0 -7 3 -2 5 12 5 14
0 19 -2 13 -5z m-583 -13 c0 -5 -4 -10 -10 -10 -5 0 -10 5 -10 10 0 6 5 10 10
10 6 0 10 -4 10 -10z m36 -17 c-7 -7 -26 7 -26 19 0 6 6 6 15 -2 9 -7 13 -15
11 -17z m209 17 c3 -5 -1 -10 -9 -10 -9 0 -16 5 -16 10 0 6 4 10 9 10 6 0 13
-4 16 -10z m155 0 c0 -5 -5 -10 -11 -10 -5 0 -7 5 -4 10 3 6 8 10 11 10 2 0 4
-4 4 -10z m-86 -21 c-3 -5 -13 -9 -22 -8 -11 0 -12 2 -4 6 6 2 10 9 7 14 -4 5
1 6 9 3 9 -3 13 -10 10 -15z m306 11 c0 -5 -2 -10 -4 -10 -3 0 -8 5 -11 10 -3
6 -1 10 4 10 6 0 11 -4 11 -10z m-420 -10 c0 -5 -4 -10 -10 -10 -5 0 -10 5
-10 10 0 6 5 10 10 10 6 0 10 -4 10 -10z m190 -25 c0 -8 -6 -12 -14 -9 -8 3
-12 12 -9 20 6 17 23 9 23 -11z m174 10 c-4 -8 -10 -12 -15 -9 -14 8 -10 24 6
24 9 0 12 -6 9 -15z m69 -2 c-7 -2 -13 -12 -13 -21 0 -15 -2 -15 -10 -2 -9 15
4 30 25 29 6 0 4 -3 -2 -6z m-517 -30 c-10 -10 -19 5 -10 18 6 11 8 11 12 0 2
-7 1 -15 -2 -18z m-91 7 c3 -5 -1 -10 -9 -10 -9 0 -16 5 -16 10 0 6 4 10 9 10
6 0 13 -4 16 -10z m155 0 c0 -5 -4 -10 -10 -10 -5 0 -10 5 -10 10 0 6 5 10 10
10 6 0 10 -4 10 -10z m80 -22 c0 -12 -10 -9 -26 6 -20 21 -17 28 6 14 11 -7
20 -16 20 -20z m44 16 c9 -24 7 -27 -9 -10 -17 17 -19 26 -6 26 5 0 12 -7 15
-16z m-305 -43 c-15 -5 -22 6 -14 19 6 9 10 9 16 -1 5 -8 4 -15 -2 -18z m147
2 c-6 -15 -9 -15 -16 -3 -6 9 -5 17 3 22 16 10 21 2 13 -19z m-46 1 c0 -2 -7
-4 -15 -4 -8 0 -15 4 -15 10 0 5 7 7 15 4 8 -4 15 -8 15 -10z m255 6 c3 -5 1
-10 -4 -10 -6 0 -11 5 -11 10 0 6 2 10 4 10 3 0 8 -4 11 -10z m235 -25 c0 -5
-5 -3 -10 5 -5 8 -10 20 -10 25 0 6 5 3 10 -5 5 -8 10 -19 10 -25z m-635 -7
c-3 -8 -12 -15 -20 -15 -8 0 -13 3 -11 6 2 3 6 15 10 25 4 13 10 16 17 9 5 -5
7 -16 4 -25z m342 0 c-3 -8 -6 -5 -6 6 -1 11 2 17 5 13 3 -3 4 -12 1 -19z
m-133 -13 c3 -9 0 -15 -9 -15 -9 0 -12 6 -9 15 4 8 7 15 9 15 2 0 5 -7 9 -15z
m-137 -17 c-3 -8 -6 -5 -6 6 -1 11 2 17 5 13 3 -3 4 -12 1 -19z m-27 2 c0 -5
-2 -10 -4 -10 -3 0 -8 5 -11 10 -3 6 -1 10 4 10 6 0 11 -4 11 -10z m255 -20
c3 -5 1 -10 -4 -10 -6 0 -11 5 -11 10 0 6 2 10 4 10 3 0 8 -4 11 -10z m295 -6
c0 -2 -7 -4 -15 -4 -8 0 -15 4 -15 10 0 5 7 7 15 4 8 -4 15 -8 15 -10z m-485
-44 c-3 -5 -12 -10 -18 -10 -7 0 -6 4 3 10 19 12 23 12 15 0z m426 -33 c-10
-9 -11 -8 -5 6 3 10 9 15 12 12 3 -3 0 -11 -7 -18z m-615 -34 c-10 -10 -19 5
-10 18 6 11 8 11 12 0 2 -7 1 -15 -2 -18z m584 -23 c0 -5 -5 -10 -11 -10 -5 0
-7 5 -4 10 3 6 8 10 11 10 2 0 4 -4 4 -10z"/>
<path d="M2389 7396 c-12 -13 -407 -120 -593 -161 -109 -24 -200 -46 -202 -47
-7 -8 -34 -309 -44 -490 -35 -669 33 -1314 201 -1898 233 -813 630 -1491 1204
-2056 371 -364 835 -676 1314 -884 l73 -32 52 23 c296 127 665 341 911 527
338 257 681 610 926 954 200 280 394 633 524 951 287 706 416 1523 376 2382
-12 247 -34 512 -45 522 -2 3 -85 22 -183 44 -98 21 -276 67 -395 100 l-218
62 -65 -69 c-36 -38 -65 -72 -65 -75 0 -4 -26 -17 -57 -29 -32 -13 -62 -27
-68 -31 -35 -25 -313 -38 -415 -19 -47 9 -55 8 -83 -12 l-31 -22 45 -20 c127
-55 656 -230 990 -326 l76 -22 7 -88 c11 -143 5 -622 -10 -800 -90 -1083 -476
-1990 -1140 -2679 -311 -323 -667 -586 -1055 -781 l-80 -41 -97 50 c-917 472
-1600 1273 -1939 2276 -102 301 -184 683 -224 1040 -23 207 -36 676 -24 886
l7 136 181 53 c269 77 897 289 920 310 5 4 -6 16 -23 27 -27 17 -39 19 -78 11
-69 -14 -283 -12 -344 2 -29 7 -77 23 -105 36 -29 13 -53 18 -53 13 0 -6 -6
-9 -12 -6 -7 2 -13 10 -13 18 0 8 -23 37 -51 64 -27 28 -59 63 -70 78 -11 15
-22 26 -25 23z m3841 -166 c13 -8 13 -10 -2 -10 -9 0 -20 5 -23 10 -8 13 5 13
25 0z m-3800 -17 c-8 -3 -18 -11 -22 -17 -5 -7 -8 -4 -8 7 0 11 7 17 23 16 15
0 17 -2 7 -6z m3890 -12 c0 -5 -9 -7 -20 -4 -11 3 -20 7 -20 9 0 2 9 4 20 4
11 0 20 -4 20 -9z m-3970 -11 c-8 -5 -24 -9 -35 -9 l-20 0 20 9 c11 5 27 9 35
9 13 1 13 0 0 -9z m3686 -38 c-3 -3 2 -11 12 -19 16 -13 16 -14 -2 -5 -11 5
-21 17 -22 26 -1 9 2 13 8 10 5 -3 7 -8 4 -12z m-3796 4 c0 -2 -9 -6 -20 -9
-11 -3 -20 -1 -20 4 0 5 9 9 20 9 11 0 20 -2 20 -4z m-74 -28 c-10 -6 -20 -7
-24 -3 -9 8 20 25 31 18 5 -3 2 -10 -7 -15z m4373 6 c2 -2 -7 -4 -22 -4 -14 0
-28 4 -32 9 -5 9 45 5 54 -5z m-64 -4 c3 -5 1 -10 -4 -10 -6 0 -11 5 -11 10 0
6 2 10 4 10 3 0 8 -4 11 -10z m-4380 -10 c-3 -5 -14 -10 -23 -9 -14 0 -13 2 3
9 27 11 27 11 20 0z m490 -6 c-9 -9 -19 -13 -23 -10 -3 4 0 11 8 16 24 15 33
11 15 -6z m4047 -2 c4 -4 -8 -6 -27 -4 -19 2 -38 9 -42 15 -7 12 56 2 69 -11z
m-4632 -22 c0 -5 -4 -10 -10 -10 -5 0 -10 5 -10 10 0 6 5 10 10 10 6 0 10 -4
10 -10z m4191 -8 c-7 -2 -18 1 -23 6 -8 8 -4 9 13 5 13 -4 18 -8 10 -11z
m-3761 -22 c-24 -15 -36 -11 -14 4 10 8 21 12 24 10 2 -3 -2 -9 -10 -14z
m4370 11 c0 -5 -9 -7 -20 -4 -11 3 -20 7 -20 9 0 2 9 4 20 4 11 0 20 -4 20 -9z
m-4960 -21 c0 -5 -4 -10 -10 -10 -5 0 -10 5 -10 10 0 6 5 10 10 10 6 0 10 -4
10 -10z m4475 0 c8 -13 -5 -13 -25 0 -13 8 -13 10 2 10 9 0 20 -4 23 -10z
m605 -8 c0 -5 -7 -9 -15 -9 -8 0 -15 4 -15 9 0 4 7 8 15 8 8 0 15 -4 15 -8z
m-5160 -22 c0 -11 -4 -20 -9 -20 -5 0 -7 9 -4 20 3 11 7 20 9 20 2 0 4 -9 4
-20z m570 10 c-8 -5 -19 -10 -25 -10 -5 0 -3 5 5 10 8 5 20 10 25 10 6 0 3 -5
-5 -10z m4133 -17 c8 3 20 1 28 -4 10 -6 7 -9 -13 -9 -31 0 -78 19 -78 32 0 5
11 1 25 -8 14 -9 31 -14 38 -11z m-4193 -3 c-20 -13 -43 -13 -35 0 3 6 16 10
28 10 18 0 19 -2 7 -10z m4670 -16 c0 -3 -7 -12 -15 -20 -16 -17 -18 -14 -9
10 6 15 24 23 24 10z m-4810 -23 c-8 -5 -28 -11 -45 -14 l-30 -6 30 14 c34 16
72 21 45 6z m4437 3 c-3 -3 -12 -4 -19 -1 -8 3 -5 6 6 6 11 1 17 -2 13 -5z
m-4540 -30 c-3 -3 -12 -4 -19 -1 -8 3 -5 6 6 6 11 1 17 -2 13 -5z m4723 -15
c27 -15 -11 -10 -45 6 l-30 14 30 -6 c17 -3 37 -9 45 -14z m-5003 -21 c-3 -7
-5 -2 -5 12 0 14 2 19 5 13 2 -7 2 -19 0 -25z m5063 -37 c0 -6 -4 -13 -10 -16
-5 -3 -10 1 -10 9 0 9 5 16 10 16 6 0 10 -4 10 -9z m137 -43 c-2 -13 -4 -5 -4
17 -1 22 1 32 4 23 2 -10 2 -28 0 -40z m-5065 -10 c-7 -7 -12 -8 -12 -2 0 14
12 26 19 19 2 -3 -1 -11 -7 -17z m-145 -45 c-3 -10 -5 -2 -5 17 0 19 2 27 5
18 2 -10 2 -26 0 -35z m5070 15 c-3 -8 -6 -5 -6 6 -1 11 2 17 5 13 3 -3 4 -12
1 -19z m0 -70 c-2 -13 -4 -5 -4 17 -1 22 1 32 4 23 2 -10 2 -28 0 -40z m153
14 c0 -15 -2 -15 -10 -2 -13 20 -13 33 0 25 6 -3 10 -14 10 -23z m-5083 -4
c-3 -8 -6 -5 -6 6 -1 11 2 17 5 13 3 -3 4 -12 1 -19z m-145 -48 c-2 -22 -6
-40 -8 -40 -2 0 -4 18 -4 40 0 22 3 40 8 40 4 0 6 -18 4 -40z m145 -42 c-3 -8
-6 -5 -6 6 -1 11 2 17 5 13 3 -3 4 -12 1 -19z m5080 -45 c-2 -16 -4 -5 -4 22
0 28 2 40 4 28 2 -13 2 -35 0 -50z m-144 27 c3 -11 1 -20 -4 -20 -5 0 -9 9 -9
20 0 11 2 20 4 20 2 0 6 -9 9 -20z m-4933 -29 c0 -6 -4 -13 -10 -16 -5 -3 -10
1 -10 9 0 9 5 16 10 16 6 0 10 -4 10 -9z m4937 -98 c-3 -10 -5 -4 -5 12 0 17
2 24 5 18 2 -7 2 -21 0 -30z m153 -3 c0 -5 -4 -10 -10 -10 -5 0 -10 5 -10 10
0 6 5 10 10 10 6 0 10 -4 10 -10z m-5103 -42 c-3 -7 -5 -2 -5 12 0 14 2 19 5
13 2 -7 2 -19 0 -25z m-150 -40 c-3 -7 -5 -2 -5 12 0 14 2 19 5 13 2 -7 2 -19
0 -25z m5113 -40 c0 -5 -4 -8 -10 -8 -5 0 -10 10 -10 23 0 18 2 19 10 7 5 -8
10 -18 10 -22z m-4963 -55 c-3 -10 -5 -2 -5 17 0 19 2 27 5 18 2 -10 2 -26 0
-35z m5103 25 c0 -18 -2 -20 -9 -8 -6 8 -7 18 -5 22 9 14 14 9 14 -14z m-153
-50 c-3 -7 -5 -2 -5 12 0 14 2 19 5 13 2 -7 2 -19 0 -25z m5 -78 c3 -16 1 -35
-4 -42 -4 -8 -8 4 -8 30 0 49 6 55 12 12z m135 -82 c-3 -7 -5 -2 -5 12 0 14 2
19 5 13 2 -7 2 -19 0 -25z m-142 -78 c3 -5 1 -10 -4 -10 -6 0 -11 5 -11 10 0
6 2 10 4 10 3 0 8 -4 11 -10z m145 -20 c0 -5 -2 -10 -4 -10 -3 0 -8 5 -11 10
-3 6 -1 10 4 10 6 0 11 -4 11 -10z m-153 -62 c-3 -7 -5 -2 -5 12 0 14 2 19 5
13 2 -7 2 -19 0 -25z m130 -160 c-3 -7 -5 -2 -5 12 0 14 2 19 5 13 2 -7 2 -19
0 -25z m-170 -200 c-3 -8 -6 -5 -6 6 -1 11 2 17 5 13 3 -3 4 -12 1 -19z
m-5000 -10 c-3 -8 -6 -5 -6 6 -1 11 2 17 5 13 3 -3 4 -12 1 -19z m5150 -20
c-3 -8 -6 -5 -6 6 -1 11 2 17 5 13 3 -3 4 -12 1 -19z m-5000 -10 c-3 -8 -6 -5
-6 6 -1 11 2 17 5 13 3 -3 4 -12 1 -19z m4840 -40 c-3 -8 -6 -5 -6 6 -1 11 2
17 5 13 3 -3 4 -12 1 -19z m150 -30 c-3 -8 -6 -5 -6 6 -1 11 2 17 5 13 3 -3 4
-12 1 -19z m-170 -125 c-3 -10 -5 -4 -5 12 0 17 2 24 5 18 2 -7 2 -21 0 -30z
m40 -485 c-3 -8 -6 -5 -6 6 -1 11 2 17 5 13 3 -3 4 -12 1 -19z"/>
<path d="M5327 6963 c-15 -15 -4 -29 36 -47 23 -10 58 -27 78 -37 20 -11 44
-19 53 -19 10 0 14 -4 11 -10 -12 -20 27 -72 68 -90 59 -25 101 -34 91 -19 -4
7 -2 10 7 7 8 -3 13 -11 11 -17 -1 -7 7 -9 23 -5 19 5 25 3 23 -7 -2 -8 7 -15
21 -17 17 -3 21 0 16 10 -5 7 2 3 13 -9 12 -11 36 -24 54 -28 18 -4 41 -13 50
-19 22 -13 40 7 30 32 -3 9 -1 13 4 9 5 -3 15 6 21 19 10 21 9 26 -5 31 -9 3
-33 12 -52 21 -30 13 -49 17 -113 21 -5 1 -5 6 -2 11 3 6 2 10 -4 10 -5 0 -13
-4 -16 -10 -10 -16 -35 -12 -29 5 4 10 0 15 -15 15 -12 0 -21 4 -21 9 0 15
-195 85 -211 76 -4 -3 -9 1 -12 9 -3 7 -26 18 -51 25 -24 6 -48 15 -51 21 -7
12 -19 13 -28 3z m330 -129 c-3 -3 -12 -4 -19 -1 -8 3 -5 6 6 6 11 1 17 -2 13
-5z m-67 -59 c7 -8 9 -15 6 -15 -4 0 -14 7 -22 15 -9 8 -11 15 -6 15 5 0 15
-7 22 -15z m63 -12 c-7 -2 -21 -2 -30 0 -10 3 -4 5 12 5 17 0 24 -2 18 -5z
m220 -10 c-7 -2 -21 -2 -30 0 -10 3 -4 5 12 5 17 0 24 -2 18 -5z m-3 -63 c0
-5 -5 -10 -11 -10 -5 0 -7 5 -4 10 3 6 8 10 11 10 2 0 4 -4 4 -10z"/>
<path d="M6052 6673 c3 -16 2 -39 -2 -53 -8 -24 -8 -24 -9 -2 -1 27 -17 29
-24 2 -3 -11 -1 -20 4 -20 5 0 9 -5 9 -11 0 -5 -4 -8 -9 -5 -16 10 -21 -23 -6
-38 19 -18 19 -26 1 -26 -7 0 -16 -10 -20 -22 -7 -29 11 -143 30 -185 8 -17
14 -35 14 -40 1 -14 59 -79 60 -65 0 7 5 10 11 6 8 -4 7 -9 -2 -16 -11 -7 -6
-15 21 -38 38 -33 60 -40 39 -12 -13 15 -12 16 3 3 10 -7 16 -17 13 -21 -13
-21 98 -71 191 -85 41 -6 42 -6 47 27 8 45 1 514 -8 528 -4 6 -13 9 -20 6 -7
-2 -21 2 -32 9 -10 8 -33 15 -50 15 -18 0 -33 5 -33 11 0 7 -11 9 -30 6 -17
-4 -30 -2 -30 3 0 16 -51 24 -60 9 -7 -10 -11 -10 -24 0 -9 7 -14 17 -11 21 5
8 -28 20 -59 20 -15 0 -18 -6 -14 -27z m315 -79 c-3 -3 -12 -4 -19 -1 -8 3 -5
6 6 6 11 1 17 -2 13 -5z m30 -86 c-3 -8 -6 -5 -6 6 -1 11 2 17 5 13 3 -3 4
-12 1 -19z"/>
<path d="M5870 6259 c-27 -14 -53 -18 -112 -16 -43 1 -78 5 -78 10 0 9 -42 9
-56 -1 -6 -4 -14 -16 -18 -27 -5 -15 -9 -16 -15 -6 -12 18 -54 4 -47 -16 3 -8
6 -21 6 -29 0 -8 3 -13 8 -12 4 0 15 -2 25 -7 21 -9 71 10 63 24 -4 5 3 7 14
4 22 -6 260 75 260 88 0 12 -9 10 -50 -12z"/>
<path d="M2905 6043 c-33 -65 -62 -120 -65 -123 -3 -3 -25 -43 -48 -90 -70
-137 -156 -300 -191 -364 -17 -32 -31 -60 -29 -61 2 -2 37 0 78 5 41 5 103 11
138 13 72 5 70 11 46 -108 -9 -44 -22 -116 -30 -160 -18 -105 -41 -223 -49
-257 -13 -53 11 -28 55 57 25 47 73 138 107 203 35 64 69 131 77 147 8 17 33
62 55 102 23 40 41 77 41 83 0 6 12 29 27 53 33 52 64 110 60 114 -2 1 -39 -2
-83 -8 -43 -5 -106 -12 -138 -15 l-59 -6 7 73 c3 41 11 89 16 109 5 19 14 80
20 134 7 54 14 106 18 114 4 11 1 13 -7 7 -8 -4 -6 3 4 18 9 14 15 37 13 52
-2 20 -15 2 -63 -92z"/>
<path d="M5923 6102 c-28 -26 -79 -71 -112 -101 -33 -29 -58 -57 -55 -62 3 -5
-2 -9 -12 -9 -9 0 -42 -21 -72 -47 -30 -27 -66 -57 -80 -69 -22 -18 -23 -23
-12 -41 8 -12 20 -19 27 -16 7 3 13 -2 13 -11 0 -25 11 -19 79 44 35 33 68 60
72 60 12 0 39 42 33 52 -3 5 1 8 9 6 14 -3 217 166 217 180 0 10 -12 24 -35
44 -20 16 -22 15 -72 -30z"/>
<path d="M6130 6001 c0 -6 5 -11 10 -11 6 0 10 -5 10 -10 0 -6 -8 -10 -17 -8
-12 2 -33 -29 -80 -122 -35 -68 -68 -129 -73 -134 -6 -6 -10 -13 -10 -17 0 -9
58 -39 74 -39 9 0 98 159 100 180 1 5 29 60 51 100 13 23 13 26 -8 42 -12 9
-24 15 -26 12 -2 -2 -10 1 -18 7 -9 9 -13 8 -13 0z m-107 -266 c-3 -9 -8 -14
-10 -11 -3 3 -2 9 2 15 9 16 15 13 8 -4z"/>
<path d="M5451 5184 c0 -11 3 -14 6 -6 3 7 2 16 -1 19 -3 4 -6 -2 -5 -13z"/>
<path d="M5780 5181 c0 -5 5 -13 10 -16 6 -3 10 -2 10 4 0 5 -4 13 -10 16 -5
3 -10 2 -10 -4z"/>
<path d="M5665 5170 c3 -5 12 -7 20 -3 21 7 19 13 -6 13 -11 0 -18 -4 -14 -10z"/>
<path d="M5703 5145 c0 -8 4 -12 9 -9 5 3 6 10 3 15 -9 13 -12 11 -12 -6z"/>
<path d="M5480 5135 c0 -8 5 -15 10 -15 6 0 10 7 10 15 0 8 -4 15 -10 15 -5 0
-10 -7 -10 -15z"/>
<path d="M5800 5140 c0 -5 5 -10 10 -10 6 0 10 5 10 10 0 6 -4 10 -10 10 -5 0
-10 -4 -10 -10z"/>
<path d="M5440 5128 c0 -9 5 -20 10 -23 13 -8 13 5 0 25 -8 13 -10 13 -10 -2z"/>
<path d="M5623 5132 c-8 -5 -9 -13 -3 -22 7 -12 10 -12 16 3 8 21 3 29 -13 19z"/>
<path d="M5660 5130 c0 -5 5 -10 10 -10 6 0 10 5 10 10 0 6 -4 10 -10 10 -5 0
-10 -4 -10 -10z"/>
<path d="M5754 5124 c3 -8 6 -18 6 -20 0 -2 5 -4 10 -4 16 0 11 27 -6 34 -12
5 -15 2 -10 -10z"/>
<path d="M5707 5100 c-3 -11 -1 -20 4 -20 5 0 9 9 9 20 0 11 -2 20 -4 20 -2 0
-6 -9 -9 -20z"/>
<path d="M5530 5091 c0 -6 7 -11 15 -11 8 0 15 -9 15 -21 0 -12 4 -17 11 -14
7 5 6 14 -4 28 -16 24 -37 34 -37 18z"/>
<path d="M5815 5090 c-3 -5 -2 -10 4 -10 5 0 13 5 16 10 3 6 2 10 -4 10 -5 0
-13 -4 -16 -10z"/>
<path d="M5482 5036 c1 -19 4 -33 8 -31 10 6 9 54 -1 61 -5 2 -8 -11 -7 -30z"/>
<path d="M5707 5063 c-10 -9 -8 -61 2 -67 5 -3 11 3 14 14 4 14 10 18 23 13
12 -4 15 -3 9 6 -5 9 -2 12 11 9 12 -2 18 -11 16 -23 -3 -18 -1 -17 21 5 13
14 23 28 21 31 -7 12 -58 7 -80 -7 -23 -15 -36 -10 -27 12 5 15 1 18 -10 7z"/>
<path d="M5622 5020 c2 -46 12 -69 21 -46 3 8 2 28 -3 45 -4 16 -6 32 -2 35 3
3 0 6 -6 6 -7 0 -11 -15 -10 -40z"/>
<path d="M5850 5049 c-12 -9 -12 -10 2 -5 13 4 20 -2 24 -19 7 -30 15 -31 31
-6 10 16 9 22 -4 33 -15 11 -16 11 -9 -6 6 -19 6 -19 -11 -3 -14 12 -22 13
-33 6z"/>
<path d="M5666 5041 c-4 -7 -5 -15 -2 -18 9 -9 19 4 14 18 -4 11 -6 11 -12 0z"/>
<path d="M5440 5030 c0 -5 5 -10 10 -10 6 0 10 5 10 10 0 6 -4 10 -10 10 -5 0
-10 -4 -10 -10z"/>
<path d="M5520 5030 c0 -5 4 -10 9 -10 6 0 13 5 16 10 3 6 -1 10 -9 10 -9 0
-16 -4 -16 -10z"/>
<path d="M5553 5005 c-6 -14 -7 -25 -2 -25 5 0 12 0 16 0 5 0 9 11 10 25 2 32
-9 32 -24 0z"/>
<path d="M5920 5010 c0 -5 5 -10 10 -10 6 0 10 -9 10 -20 0 -13 7 -20 20 -20
20 0 20 0 -2 30 -22 30 -38 39 -38 20z"/>
<path d="M5429 5000 c-8 -22 15 -40 42 -33 22 6 23 5 8 -9 -18 -18 -24 -94 -9
-103 6 -3 10 -1 10 5 0 6 4 9 9 6 11 -7 23 22 15 35 -3 5 -9 7 -13 4 -5 -2 -8
7 -8 20 0 14 3 28 8 31 19 11 8 24 -20 24 -20 0 -31 6 -33 18 -3 14 -5 14 -9
2z"/>
<path d="M5897 4973 c-3 -5 4 -24 14 -43 11 -19 19 -29 19 -22 0 8 16 12 46
12 27 0 43 4 39 10 -3 5 -16 10 -28 10 -12 0 -32 1 -44 1 -16 0 -23 6 -23 20
0 19 -15 26 -23 12z"/>
<path d="M5522 4949 c2 -6 8 -10 13 -10 5 0 11 4 13 10 2 6 -4 11 -13 11 -9 0
-15 -5 -13 -11z"/>
<path d="M5583 4940 c-1 -11 2 -20 8 -20 5 0 9 -9 9 -20 0 -12 -7 -20 -16 -20
-9 0 -18 9 -21 20 -3 11 -9 20 -14 20 -14 0 -10 -30 5 -46 16 -15 46 -19 46
-5 0 5 10 12 23 15 20 6 21 7 4 17 -9 6 -15 14 -12 20 4 5 1 9 -4 9 -6 0 -11
7 -11 15 0 23 -16 18 -17 -5z"/>
<path d="M5647 4940 c-3 -11 -1 -20 4 -20 5 0 9 2 9 4 0 2 3 11 6 20 3 9 2 16
-4 16 -5 0 -12 -9 -15 -20z"/>
<path d="M5410 4898 c0 -19 2 -20 10 -8 13 19 13 30 0 30 -5 0 -10 -10 -10
-22z"/>
<path d="M6086 4904 c-9 -23 -8 -24 14 -24 11 0 20 2 20 4 0 12 -13 36 -20 36
-4 0 -11 -7 -14 -16z"/>
<path d="M5520 4866 c0 -18 58 -58 72 -50 18 11 6 24 -22 24 -23 0 -30 4 -28
16 2 10 -3 19 -9 21 -7 3 -13 -3 -13 -11z"/>
<path d="M6167 4874 c-11 -11 -8 -66 3 -59 6 3 10 1 10 -6 0 -9 3 -10 11 -2 6
6 9 23 7 39 -3 27 -18 41 -31 28z"/>
<path d="M5413 4853 c-20 -7 -15 -19 7 -20 11 -1 20 4 20 13 0 14 -6 16 -27 7z"/>
<path d="M5880 4794 c0 -6 -10 -16 -22 -22 -22 -10 -21 -11 10 -11 17 -1 32 2
32 7 0 12 -20 38 -20 26z"/>
<path d="M5392 4778 c-16 -16 -15 -35 2 -41 17 -7 26 1 26 24 0 23 -14 31 -28
17z"/>
<path d="M5547 4763 c3 -7 9 -10 14 -7 14 8 11 21 -5 21 -8 0 -12 -6 -9 -14z"/>
<path d="M5883 4747 c-44 -20 -15 -64 41 -63 27 1 28 42 2 59 -15 10 -27 11
-43 4z"/>
<path d="M2777 4709 c7 -7 15 -10 18 -7 3 3 -2 9 -12 12 -14 6 -15 5 -6 -5z"/>
<path d="M2885 4689 c-4 -6 -5 -12 -2 -15 2 -3 7 2 10 11 7 17 1 20 -8 4z"/>
<path d="M2790 4650 c0 -5 5 -10 11 -10 5 0 7 5 4 10 -3 6 -8 10 -11 10 -2 0
-4 -4 -4 -10z"/>
<path d="M2850 4650 c0 -5 5 -10 10 -10 6 0 10 5 10 10 0 6 -4 10 -10 10 -5 0
-10 -4 -10 -10z"/>
<path d="M3058 4643 c7 -3 16 -2 19 1 4 3 -2 6 -13 5 -11 0 -14 -3 -6 -6z"/>
<path d="M3143 4635 c0 -8 4 -15 9 -15 4 0 8 7 8 15 0 8 -4 15 -8 15 -5 0 -9
-7 -9 -15z"/>
<path d="M2895 4630 c-3 -5 -1 -10 4 -10 6 0 11 5 11 10 0 6 -2 10 -4 10 -3 0
-8 -4 -11 -10z"/>
<path d="M2938 4633 c7 -3 16 -2 19 1 4 3 -2 6 -13 5 -11 0 -14 -3 -6 -6z"/>
<path d="M2760 4612 c0 -5 11 -14 25 -20 31 -14 38 -15 31 -3 -3 5 1 12 10 15
9 4 14 9 11 13 -4 3 -14 0 -22 -7 -12 -10 -19 -10 -27 -2 -14 14 -28 16 -28 4z"/>
<path d="M2985 4610 c3 -5 14 -10 23 -10 15 0 15 2 2 10 -20 13 -33 13 -25 0z"/>
<path d="M3095 4610 c-3 -5 1 -10 9 -10 9 0 16 5 16 10 0 6 -4 10 -9 10 -6 0
-13 -4 -16 -10z"/>
<path d="M2868 4600 c-6 -16 54 -65 66 -53 13 13 5 34 -11 32 -33 -3 -42 1
-45 19 -3 14 -5 15 -10 2z"/>
<path d="M3105 4579 c-10 -15 3 -25 16 -12 7 7 7 13 1 17 -6 3 -14 1 -17 -5z"/>
<path d="M2980 4570 c0 -5 5 -10 11 -10 5 0 7 5 4 10 -3 6 -8 10 -11 10 -2 0
-4 -4 -4 -10z"/>
<path d="M3010 4570 c0 -5 5 -10 11 -10 5 0 7 5 4 10 -3 6 -8 10 -11 10 -2 0
-4 -4 -4 -10z"/>
<path d="M3045 4570 c-3 -5 -1 -10 4 -10 6 0 11 5 11 10 0 6 -2 10 -4 10 -3 0
-8 -4 -11 -10z"/>
<path d="M2788 4551 c7 -4 15 -16 16 -26 3 -19 26 -35 26 -18 0 15 -31 53 -43
53 -8 0 -8 -3 1 -9z"/>
<path d="M2867 4543 c-4 -6 -3 -21 1 -33 7 -20 9 -20 21 -6 8 9 9 16 3 16 -6
0 -12 8 -14 18 -2 11 -6 13 -11 5z"/>
<path d="M2780 4524 c0 -8 5 -12 10 -9 6 4 8 11 5 16 -9 14 -15 11 -15 -7z"/>
<path d="M2980 4530 c0 -6 7 -10 15 -10 8 0 15 2 15 4 0 2 -7 6 -15 10 -8 3
-15 1 -15 -4z"/>
<path d="M2936 4512 c-2 -4 -1 -14 5 -22 7 -13 9 -13 9 0 0 12 2 13 9 1 5 -7
14 -10 20 -6 9 5 7 11 -6 21 -21 16 -30 17 -37 6z"/>
<path d="M2866 4448 c3 -4 14 -8 25 -8 11 0 18 4 14 9 -3 6 -14 9 -25 8 -10
-1 -16 -5 -14 -9z"/>
<path d="M1674 1332 c-18 -12 -26 -50 -19 -93 l7 -40 61 3 62 3 3 61 c3 57 1
62 -20 68 -31 8 -81 7 -94 -2z"/>
<path d="M1921 1327 c-9 -11 -11 -105 -9 -363 l3 -349 65 0 65 0 3 103 3 103
72 -3 72 -3 66 -100 c61 -93 69 -100 105 -106 53 -9 106 0 100 17 -10 25 -148
229 -163 241 -14 11 -13 16 9 45 52 69 138 198 138 208 0 6 -29 10 -69 10
l-68 0 -53 -81 c-69 -104 -88 -119 -156 -119 l-54 0 -2 203 -3 202 -56 3 c-39
2 -59 -1 -68 -11z"/>
<path d="M6093 1333 c-9 -3 -13 -27 -13 -69 l0 -65 63 3 62 3 3 59 c2 41 -1
62 -10 67 -14 9 -85 11 -105 2z"/>
<path d="M7667 1334 c-4 -4 -7 -169 -7 -366 l0 -358 65 0 65 0 -2 363 -3 362
-55 3 c-31 2 -59 0 -63 -4z"/>
<path d="M901 1276 c-8 -9 -11 -107 -9 -337 l3 -324 275 0 c249 0 279 2 303
18 84 55 103 216 35 293 l-30 34 25 30 c51 60 44 201 -11 252 -46 43 -79 48
-337 48 -193 0 -245 -3 -254 -14z m479 -131 c19 -23 14 -107 -7 -122 -12 -9
-65 -13 -180 -13 l-163 0 0 75 0 75 169 0 c138 0 171 -3 181 -15z m-2 -261
c20 -14 23 -23 20 -72 -4 -78 -13 -82 -210 -82 l-158 0 0 85 0 85 163 0 c132
0 167 -3 185 -16z"/>
<path d="M3747 1276 c-54 -20 -83 -50 -97 -102 -17 -58 -8 -164 17 -206 33
-58 77 -72 251 -76 141 -4 154 -6 167 -25 19 -27 19 -87 1 -113 -13 -18 -30
-19 -230 -22 l-216 -4 0 -59 0 -60 254 3 c241 3 256 4 283 24 50 37 64 73 64
168 1 155 -38 194 -208 206 -59 4 -121 6 -138 4 -40 -5 -102 13 -109 32 -10
27 -7 79 7 97 10 15 39 17 217 19 l205 3 0 60 0 60 -215 2 c-162 2 -224 -1
-253 -11z"/>
<path d="M5707 1274 c-4 -4 -7 -38 -7 -76 l0 -68 -45 0 -45 0 0 -55 0 -55 44
0 44 0 4 -157 c4 -176 14 -210 69 -238 34 -18 153 -31 193 -21 24 6 26 11 26
56 l0 50 -55 0 c-89 0 -95 11 -95 175 l0 135 75 0 75 0 0 55 0 55 -75 0 -74 0
-3 73 -3 72 -60 3 c-34 2 -64 0 -68 -4z"/>
<path d="M2690 1131 c-139 -19 -180 -79 -180 -258 1 -155 23 -207 105 -244 34
-16 67 -19 226 -19 l187 0 5 33 c2 17 1 42 -4 55 -8 22 -12 22 -168 22 -88 0
-167 3 -176 6 -19 8 -45 55 -45 84 0 19 5 20 193 20 137 0 196 3 205 12 7 7
12 44 12 96 0 108 -17 148 -76 173 -48 22 -196 32 -284 20z m221 -122 c14 -14
19 -30 17 -57 l-3 -37 -142 -3 -143 -3 0 34 c0 67 36 86 158 87 80 0 95 -3
113 -21z"/>
<path d="M4505 1130 c-132 -19 -175 -83 -175 -259 0 -112 17 -175 58 -213 49
-46 81 -51 350 -49 l123 1 -3 53 -3 52 -165 2 c-96 2 -174 8 -186 14 -24 12
-44 49 -44 79 0 19 8 20 193 20 137 0 196 3 205 12 8 8 12 45 12 102 0 107
-16 142 -76 171 -42 20 -200 28 -289 15z m210 -112 c27 -12 39 -40 33 -79 -3
-24 -5 -24 -145 -27 l-143 -3 0 33 c0 37 13 59 45 76 27 15 178 15 210 0z"/>
<path d="M5150 1130 c-69 -10 -99 -22 -127 -51 -38 -42 -43 -73 -43 -275 l0
-194 65 0 65 0 0 178 c0 229 -5 222 149 222 161 0 155 8 159 -219 l3 -181 65
0 64 0 0 190 c0 245 -13 283 -109 314 -54 18 -213 26 -291 16z"/>
<path d="M6493 1130 c-66 -10 -112 -36 -138 -80 -18 -32 -20 -55 -23 -237 l-3
-203 64 0 64 0 7 182 c5 147 10 185 23 200 14 15 33 18 128 18 76 0 117 -4
129 -13 26 -19 35 -82 36 -244 l0 -143 66 0 66 0 -4 198 c-4 238 -11 261 -92
298 -41 18 -73 24 -161 27 -60 3 -133 1 -162 -3z"/>
<path d="M7179 1130 c-59 -10 -100 -32 -132 -70 -34 -40 -40 -75 -36 -217 5
-140 21 -178 94 -213 41 -20 61 -22 230 -22 103 0 189 2 192 6 12 11 13 79 2
92 -9 11 -47 14 -176 14 -161 0 -164 0 -188 25 -16 15 -25 36 -25 55 l0 30
193 0 c137 0 196 3 205 12 7 7 12 44 12 98 0 153 -36 186 -215 193 -60 3 -131
1 -156 -3z m216 -112 c27 -12 39 -40 33 -79 -3 -24 -4 -24 -145 -27 l-143 -3
0 31 c0 40 16 69 43 80 33 13 182 12 212 -2z"/>
<path d="M1658 1118 c-3 -11 -3 -392 1 -480 1 -28 2 -28 66 -28 l65 0 0 260 0
260 -64 0 c-42 0 -65 -4 -68 -12z"/>
<path d="M3239 1107 c-76 -40 -84 -68 -84 -297 l0 -195 45 -5 c96 -11 90 -22
90 181 0 233 -12 220 187 223 39 1 74 3 76 6 6 6 10 44 8 83 l-1 27 -138 0
c-125 0 -143 -2 -183 -23z"/>
<path d="M6080 870 l0 -260 65 0 65 0 0 260 0 260 -65 0 -65 0 0 -260z"/>
</g>
</svg>
